<?xml version="1.0" standalone="no"?>
<!DOCTYPE svg PUBLIC "-//W3C//DTD SVG 1.1//EN" "http://www.w3.org/Graphics/SVG/1.1/DTD/svg11.dtd">
<svg xmlns="http://www.w3.org/2000/svg">
<metadata>Generated by Fontastic.me</metadata>
<defs>
<font id="sgkb-icon-font" horiz-adv-x="512">
<font-face font-family="sgkb-icon-font" units-per-em="512" ascent="480" descent="-32"/>
<missing-glyph horiz-adv-x="512" />

<glyph glyph-name="circle" unicode="&#98;" d="M262-11c142 0 261 119 261 261 0 143-119 262-261 262-143 0-262-119-262-262 0-142 119-261 262-261"/>
<glyph glyph-name="circle-o" unicode="&#99;" d="M262 512c-143 0-262-119-262-262 0-142 119-261 262-261 142 0 261 119 261 261 0 143-119 262-261 262z m0-461c-114 0-205 91-205 199 0 114 91 205 205 205 113 0 199-91 199-199 0-114-91-205-199-205z"/>
<glyph glyph-name="checkbox-o" unicode="&#100;" d="M0 512l0-512 512 0 0 512z m478-478l-444 0 0 444 444 0z"/>
<glyph glyph-name="circle-close" unicode="&#101;" d="M258 512c-142 0-258-116-258-258 0-142 116-257 258-257 142 0 257 115 257 257 0 142-115 258-257 258z m107-345l-21-22-88 88-88-88-19 22 87 87-87 88 21 21 88-87 87 87 22-21-88-88z"/>
<glyph glyph-name="previous" unicode="&#102;" d="M404 479l-33 33-256-256 256-256 33 33-225 223z"/>
<glyph glyph-name="checkbox" unicode="&#103;" d="M0 512l461 0 0-461-461 0z"/>
<glyph glyph-name="zoom" unicode="&#104;" d="M508 56l-159 160c21 31 31 68 31 106 0 50-20 98-55 134-36 36-84 56-135 56-51 0-99-20-135-56-35-36-55-83-55-134 0-51 20-98 56-135 36-35 83-55 134-55 39 0 76 11 107 32l160-160c6-6 16-4 22 3l27 27c7 6 8 17 2 22m-318 127c-76 0-139 62-139 139 0 76 63 139 139 139 76 0 139-63 139-139 0-77-62-139-139-139"/>
<glyph glyph-name="circle-right" unicode="&#105;" d="M250 512c-139 0-250-111-250-250 0-137 111-251 250-251 137 0 251 111 251 251-3 139-114 250-251 250z m88-259l-125-125c-3-3-5-3-8-3-3 0-6 0-9 3-5 6-5 11 0 17l117 117-117 116c-5 6-5 12 0 17 6 6 12 6 17 0l125-125c3-3 3-11 0-17z"/>
<glyph glyph-name="circle-minus" unicode="&#106;" d="M101 243l310 0 0 26-310 0z m155 269c-141 0-256-115-256-256 0-141 115-256 256-256 141 0 256 115 256 256 0 141-115 256-256 256z m0-486c-127 0-230 103-230 230 0 127 103 230 230 230 127 0 230-103 230-230 0-127-103-230-230-230z"/>
<glyph glyph-name="new-window" unicode="&#107;" d="M213 512l0-53 210 0-240-239 38-39 240 241 0-210 52 0 0 300z m-160 0l-53 0 0-515 513 0 0 53-460 0z"/>
<glyph glyph-name="checkbox-checked" unicode="&#109;" d="M0 512l0-512 512 0 0 512z m229-379l-123 103 44 51 75-62 154 154 48-48z"/>
<glyph glyph-name="down" unicode="&#110;" d="M512 364l-33 33-223-223-223 223-33-33 256-256z"/>
<glyph glyph-name="checked" unicode="&#111;" d="M470 448l-281-282-147 125-42-48 192-163 323 323z"/>
<glyph glyph-name="close" unicode="&#112;" d="M500 457l-55 55-193-193-197 193-55-55 197-193-197-197 55-55 197 197 193-197 55 55-193 197z"/>
<glyph glyph-name="checked-alt" unicode="&#113;" d="M470 448l-281-282-147 125-42-48 192-163 323 323z"/>
<glyph glyph-name="circle-warning" unicode="&#114;" d="M255 172c-7 0-14-3-19-8-5-5-8-12-8-19 0-8 3-15 8-20 5-5 12-7 19-7 8 0 15 3 20 7 5 6 8 12 8 20 0 7-3 14-8 19-5 5-12 8-20 8z m0 340c-140 0-255-115-255-255 0-142 115-256 255-256 141 0 256 115 256 256 0 140-114 255-256 255z m0-470c-118 0-214 96-214 215 0 118 96 214 214 214 119 0 215-96 215-214 0-119-96-215-215-215z m0 354c-15 0-27-12-27-27l0-116c0-15 12-27 27-27 16 0 28 12 28 27l0 116c0 15-12 27-28 27z"/>
<glyph glyph-name="circle-close-o" unicode="&#117;" d="M253 512c-140 0-253-113-253-253 0-139 113-254 253-254 140 0 254 114 254 254-2 140-115 253-254 253z m0-485c-129 0-233 104-233 232 0 128 104 233 233 233 130 0 232-104 232-233 0-128-104-232-232-232z m128 361c-4 4-10 4-15 0l-114-114-115 114c-4 4-10 4-14 0-4-4-4-11 0-15l114-114-1-2 1-1-114-115c-4-4-4-10 0-14 1-2 4-3 6-3 3 0 6 1 7 3l115 114 114-114c1-2 4-3 7-3 3 0 5 1 7 3 4 4 4 10 0 14l-115 115 0 3 115 114c6 4 6 11 2 15z"/>
<glyph glyph-name="download" unicode="&#118;" d="M455 177c-12 0-23-10-23-23l0-108-355 0 0 108c0 13-10 23-23 23-12 0-23-10-23-23l0-131c0-13 11-23 23-23l401 0c13 0 23 10 23 23l0 131c0 13-10 23-23 23z m-217-1c1-1 2-1 2-2 1 0 1-1 2-1 0-1 1-1 1-1 3-2 7-3 11-3 1 0 3 0 4 1 1 0 2 0 3 0 3 1 6 3 9 6l97 97c9 9 9 23 0 32-9 10-23 10-32 0l-58-58 0 242c0 13-10 23-23 23-12 0-22-10-22-23l0-242-58 58c-9 10-23 10-32 0-9-9-9-23 0-32z"/>
<glyph glyph-name="circle-info-o" unicode="&#119;" d="M254 341c22 0 39 17 39 40 0 22-17 39-39 39-22 0-40-17-40-39-1-23 18-40 40-40z m37-40l-84 0 0-47 36 0 0-93-36 0 0-48 116 0 0 48-32 0z m-34 211c-142 0-257-115-257-257 0-142 115-257 257-257 142 0 257 115 257 257 1 142-115 257-257 257z m0-481c-122 0-222 100-222 224 0 122 100 222 222 222 122 0 222-100 222-222 2-124-98-224-222-224z"/>
<glyph glyph-name="arrow-right" unicode="&#120;" d="M313 453l-24-26 154-153-443 0 0-36 443 0-154-153 24-26 199 197z"/>
<glyph glyph-name="arrow-up" unicode="&#121;" d="M129 512l0-49 299 0-428-428 35-35 428 428 0-299 49 0 0 383z"/>
<glyph glyph-name="arrow-down" unicode="&#122;" d="M463 383l0-299-428 428-35-35 428-428-299 0 0-49 383 0 0 383z"/>
<glyph glyph-name="circle-plus" unicode="&#65;" d="M269 411l-26 0 0-142-142 0 0-26 142 0 0-142 26 0 0 142 142 0 0 26-142 0z m-13 101c-141 0-256-115-256-256 0-141 115-256 256-256 141 0 256 115 256 256 0 141-115 256-256 256z m0-486c-127 0-230 103-230 230 0 127 103 230 230 230 127 0 230-103 230-230 0-127-103-230-230-230z"/>
<glyph glyph-name="radio-o" unicode="&#85;" d="M259 512c-143 0-259-116-259-259 0-144 116-260 259-260 144 0 260 116 260 260 0 143-116 259-260 259z m0-485c-122 0-225 103-225 226 0 122 103 225 225 225 123 0 226-103 226-225 0-123-103-226-226-226z"/>
<glyph glyph-name="radio-checked" unicode="&#67;" d="M256 512c-141 0-256-115-256-256 0-141 115-256 256-256 141 0 256 115 256 256 0 141-115 256-256 256z m0-480c-125 0-224 99-224 224 0 125 99 224 224 224 125 0 224-99 224-224 0-125-99-224-224-224z m0 381c-86 0-157-71-157-157 0-86 71-160 157-160 86 0 160 74 160 160 0 86-74 157-160 157z"/>
<glyph glyph-name="next" unicode="&#68;" d="M148 512l-33-33 223-223-223-223 33-33 256 256z"/>
<glyph glyph-name="circle-left" unicode="&#69;" d="M0 255c0-142 116-258 257-258 142 0 258 116 258 258 0 141-116 257-258 257-141 0-257-116-257-257z m24 0c0 128 105 233 233 233 129 0 234-105 234-233 0-129-105-234-234-234-128 1-233 105-233 234z m292 115l-114-115 114-115-17-17-131 132 131 131z"/>
<glyph glyph-name="circle-right-1" unicode="&#70;" d="M257 512c-141 0-257-116-257-257 0-142 116-258 257-258 142 0 258 116 258 258 0 141-116 257-258 257z m0-490c-128 0-233 105-233 234 0 129 105 234 233 234 129 0 234-105 234-234-1-130-105-234-234-234z m-60 348l114-115-114-115 17-17 131 132-131 131z"/>
<glyph glyph-name="facebook" unicode="&#71;" d="M195 397c0-11 0-63 0-63l-47 0 0-78 47 0 0-230 95 0 0 230 65 0c0 0 6 37 8 78-8 0-72 0-72 0 0 0 0 45 0 53 0 8 10 19 21 19 10 0 31 0 52 0 0 10 0 47 0 80-27 0-58 0-71 0-100 0-98-77-98-89z"/>
<glyph glyph-name="twitter" unicode="&#72;" d="M434 274c26 2 44 13 50 29-9-5-38-12-54-6-1 4-2 8-2 11-13 45-54 81-98 76 3 2 7 3 11 4 4 2 33 7 28 17-4 8-38-7-45-9 9 3 23 9 25 19-13-2-26-8-36-17 3 4 6 8 7 13-35-22-56-67-73-111-13 13-24 23-34 28-29 16-64 32-119 52-1-18 9-42 40-58-7 1-19-1-29-3 4-21 17-38 52-46-16-1-24-5-32-13 8-14 25-31 57-27-35-16-14-44 15-40-50-50-127-47-171-4 116-158 368-94 405 59 29-1 45 9 55 20-16-2-39 0-52 6z"/>
<glyph glyph-name="youtube" unicode="&#73;" d="M389 149l-25 0 0 15c0 7 5 12 12 12l1 0c7 0 12-5 12-12z m-95 32c-6 0-12-4-12-10l0-71c0-5 6-10 12-10 6 0 12 5 12 10l0 71c0 6-6 10-12 10z m154 40l0-136c0-33-28-59-63-59l-258 0c-35 0-63 26-63 59l0 136c0 32 28 59 63 59l258 0c35 0 63-27 63-59z m-304-151l0 143 32 0 0 21-85 1 0-21 26 0 0-144z m96 122l-27 0 0-76c0-12 1-17 0-19-2-6-12-12-15-1-1 2 0 8 0 19l-1 77-26 0 0-76c0-11 0-20 0-24 1-7 0-15 7-20 12-8 35 2 41 14l0-16 21 0 0 122z m85-88l0 64c0 24-18 39-42 19l0 47-27 0 0-163 22 0 2 11c28-26 46-8 45 22z m84 9l-20 0c0-1 0-2 0-3l0-11c0-6-5-11-11-11l-4 0c-6 0-11 5-11 11l0 29 46 0 0 17c0 13 0 26-1 33-4 23-36 26-52 15-5-4-9-9-11-15-2-7-3-16-3-27l0-38c0-63 76-54 67 0z m-103 206c2-4 4-6 7-8 3-2 6-3 11-3 4 0 7 1 10 3 3 2 5 5 7 9l0-10 30 0 0 127-24 0 0-99c0-5-4-10-10-10-5 0-9 5-9 10l0 99-25 0 0-86c0-11 0-18 1-22 0-3 1-7 2-10z m-90 71c0 12 1 22 3 29 2 7 6 12 11 16 5 4 12 6 20 6 7 0 13-1 18-4 5-2 9-6 11-10 3-4 5-9 6-13 1-5 1-12 1-21l0-32c0-12 0-20-1-26-1-5-3-10-6-15-3-5-7-8-11-11-5-2-10-3-16-3-7 0-13 1-18 3-4 2-8 5-11 9-2 4-4 8-5 14-1 5-2 14-2 25l0 33z m23-50c0-7 6-13 12-13 7 0 12 6 12 13l0 67c0 8-5 13-12 13-6 0-12-5-12-13z m-82-34l28 0 0 97 33 83-30 0-18-62-18 62-30 0 35-83z"/>
<glyph glyph-name="linkedin" unicode="&#74;" d="M486 206l0-170-98 0 0 159c0 40-15 67-50 67-28 0-44-18-51-36-3-7-3-15-3-24l0-166-99 0c0 0 1 269 0 297l99 0 0-42c-1 0-1-1-1-1l1 0 0 1c13 20 36 49 89 49 65 0 113-43 113-134z m-404 270c-34 0-56-22-56-51 0-29 21-52 54-52l1 0c34 0 56 23 56 52-1 29-22 51-55 51z m-51-440l99 0 0 297-99 0z"/>
<glyph glyph-name="xing" unicode="&#75;" d="M309 26l-103 180 160 280 108 0-160-280 103-180z m-169 139l80 132-60 105-102 0 60-105-80-132z"/>
<glyph glyph-name="map-marker" unicode="&#77;" d="M257 413c-42 0-76-34-76-76 0-42 34-75 76-75 41 0 75 34 75 75 0 42-34 76-75 76m0-116c-23 0-40 18-40 40 0 22 17 40 40 40 22 0 39-18 39-40 0-22-17-40-39-40m0 215c-97 0-175-78-175-175 0-140 155-314 161-322l14-15 13 15c6 7 161 179 161 322 0 97-78 175-174 175m0-457c-37 45-139 178-139 282 0 77 62 139 139 139 76 0 138-62 138-139 0-106-101-238-138-282"/>
<glyph glyph-name="mail" unicode="&#78;" d="M507 62l-512 0 0 386 512 0z m-452 36l391 0-129 131-24-24c-11-11-26-17-42-17 0 0 0 0 0 0-16 0-31 7-42 17l-24 25z m-24 289l0-264 129 132z m312-133l128-131 0 260z m-107-24c4-4 9-6 16-6 6 0 12 2 16 6l181 182-394 0"/>
<glyph glyph-name="phone" unicode="&#79;" d="M393 3c-211 0-385 172-385 385 0 56 68 111 75 117 14 10 36 7 46-6l87-124c10-13 9-35-3-46l-48-48 116-116 51 51c12 12 33 14 46 5l117-72c15-10 20-30 12-45-7-12-56-101-114-101z m-291 476c-16-13-61-56-61-91 0-195 159-352 352-352 33 0 73 61 84 83l-119 74c0 0-5 0-5 0l-51-51c-13-13-34-13-46 0l-114 116c-7 6-10 15-10 23 0 8 3 16 10 23l48 48c0 0 2 3 0 3z"/>
<glyph glyph-name="clock" unicode="&#80;" d="M257 508c-137 0-249-112-249-249 0-137 112-249 249-249 138 0 249 111 249 249 0 137-112 249-249 249z m0-447c-109 0-197 89-197 198 0 108 88 197 197 197 110 0 198-89 198-197 0-109-89-198-198-198z m134 208l-109 0 0 109c0 14-12 25-25 25l-1 0c-14 0-25-11-25-25l0-135c0-14 12-25 25-25l135 0c14 0 25 12 25 25l0 1c0 13-12 25-25 25z"/>
<glyph glyph-name="up" unicode="&#108;" d="M256 397l-256-256 33-33 223 225 223-225 33 33z"/>
<glyph glyph-name="lock" unicode="&#84;" d="M430 282l-13 0c0 22 0 45 0 47 0 88-70 158-157 158-87 0-158-70-158-158 0-2 0-25 0-47l-15 0c-17 0-29-14-29-30l0-201c0-16 12-32 29-32l343 0c17 0 31 16 31 32l0 201c0 16-14 30-31 30z m-85 0l-170 0c0 19 0 46 0 47 0 47 38 85 85 85 47 0 85-38 85-85 0-2 0-26 0-47z"/>
<glyph glyph-name="menu" unicode="&#66;" d="M8 166l496 0 0-29-496 0z m0 104l496 0 0-28-496 0z m0 105l496 0 0-29-496 0z"/>
<glyph glyph-name="person" unicode="&#86;" d="M256 256c70 0 128 58 128 128 0 70-58 128-128 128-70 0-128-58-128-128 0-70 58-128 128-128z m0-64c-86 0-256-42-256-128l0-64 512 0 0 64c0 86-170 128-256 128z"/>
<glyph glyph-name="sgkb" unicode="&#87;" d="M186 514l295 0-165-255 160-261-286 0-159 261z"/>
<glyph glyph-name="circle-1" unicode="&#115;" d="M256 45c117 0 211 94 211 211 0 117-94 211-211 211-117 0-211-94-211-211 0-117 94-211 211-211z m0-23c-129 0-234 105-234 234 0 129 105 234 234 234 129 0 234-105 234-234 0-129-105-234-234-234z m-2 143l26 0 0 186-23 0-46-37 14-18 29 25z"/>
<glyph glyph-name="locate-alt" unicode="&#116;" d="M512 277l-30 0c-11 108-97 194-205 205l0 30-42 0 0-30c-108-11-194-97-205-205l-30 0 0-42 30 0c11-108 97-194 205-205l0-30 42 0 0 30c108 11 194 97 205 205l30 0z m-235-204l0 66-42 0 0-66c-85 10-152 77-162 162l66 0 0 42-66 0c10 85 77 152 162 162l0-66 42 0 0 66c85-10 152-77 162-162l-66 0 0-42 66 0c-10-85-77-152-162-162m-21 220c21 0 37-16 37-37 0-21-16-37-37-37-21 0-37 16-37 37 0 21 16 37 37 37"/>
<glyph glyph-name="circle-2" unicode="&#76;" d="M256 45c117 0 211 94 211 211 0 117-94 211-211 211-117 0-211-94-211-211 0-117 94-211 211-211z m0-23c-129 0-234 105-234 234 0 129 105 234 234 234 129 0 234-105 234-234 0-129-105-234-234-234z m-61 143l118 0 0 22-89 0c9 8 22 19 33 30 20 20 53 53 53 84 0 35-26 54-60 54-17 0-34-5-49-11l3-23c10 5 26 12 42 12 21 0 36-13 36-30 0-30-33-60-54-80-11-11-23-21-33-30z"/>
<glyph glyph-name="circle-3" unicode="&#97;" d="M256 45c117 0 211 94 211 211 0 117-94 211-211 211-117 0-211-94-211-211 0-117 94-211 211-211z m0-23c-129 0-234 105-234 234 0 129 105 234 234 234 129 0 234-105 234-234 0-129-105-234-234-234z m-36 229l17 0c24 0 46-8 46-36 0-23-25-31-45-31-16 0-31 5-41 10l-2-25c12-4 28-7 43-7 37 0 74 10 74 53 0 26-17 41-42 46l0 0c21 4 40 19 40 43 0 35-28 51-61 51-16 0-35-4-47-9l2-23c11 5 24 10 41 10 20 0 37-8 37-30 0-23-27-30-47-30l-15 0z"/>
<glyph glyph-name="circle-4" unicode="&#81;" d="M256 45c117 0 211 94 211 211 0 117-94 211-211 211-117 0-211-94-211-211 0-117 94-211 211-211z m0-23c-129 0-234 105-234 234 0 129 105 234 234 234 129 0 234-105 234-234 0-129-105-234-234-234z m18 207l-59 0 58 100 1 0z m0-64l26 0 0 42 24 0 0 22-24 0 0 122-38 0-75-122 0-22 87 0z"/>
<glyph glyph-name="circle-5" unicode="&#82;" d="M256 45c117 0 211 94 211 211 0 117-94 211-211 211-117 0-211-94-211-211 0-117 94-211 211-211z m0-23c-129 0-234 105-234 234 0 129 105 234 234 234 129 0 234-105 234-234 0-129-105-234-234-234z m53 329l-102 0-2-98c10 5 20 7 36 7 25 0 45-13 45-40 0-23-21-36-43-36-16 0-27 3-39 9l-1-25c7-3 20-6 40-6 39 0 72 22 72 62 0 34-28 58-61 58-10 0-19-1-24-2l2 49 77 0z"/>
<glyph glyph-name="circle-6" unicode="&#83;" d="M256 45c117 0 211 94 211 211 0 117-94 211-211 211-117 0-211-94-211-211 0-117 94-211 211-211z m0-23c-129 0-234 105-234 234 0 129 105 234 234 234 129 0 234-105 234-234 0-129-105-234-234-234z m54 327c-7 3-26 6-39 6-59 0-75-53-75-104 0-42 10-89 62-89 34 0 60 23 60 61 0 34-20 59-56 59-15 0-28-5-41-17l0 0c0 36 17 68 52 68 12 0 23-3 33-8z m-20-126c0-20-11-39-33-39-22 0-33 21-33 39 0 21 13 37 35 37 21 0 31-20 31-37z"/>
<glyph glyph-name="circle-7" unicode="&#88;" d="M256 45c117 0 211 94 211 211 0 117-94 211-211 211-117 0-211-94-211-211 0-117 94-211 211-211z m0-23c-129 0-234 105-234 234 0 129 105 234 234 234 129 0 234-105 234-234 0-129-105-234-234-234z m57 329l-118 0 0-22 91 0-71-164 29 0 69 164z"/>
<glyph glyph-name="circle-8" unicode="&#89;" d="M256 45c117 0 211 94 211 211 0 117-94 211-211 211-117 0-211-94-211-211 0-117 94-211 211-211z m0-23c-129 0-234 105-234 234 0 129 105 234 234 234 129 0 234-105 234-234 0-129-105-234-234-234z m-1 140c35 0 65 16 65 53 0 25-17 42-39 50 25 13 34 27 34 48 0 20-21 42-58 42-38 0-61-21-61-45 0-18 8-37 35-47l0 0c-22-8-39-24-39-49 0-35 32-52 63-52z m37 51c-1-19-16-29-34-29-19 0-38 11-38 31 0 22 16 27 31 38 20-10 42-14 41-40z m-69 93c0 18 19 27 32 27 13 0 31-6 31-24 0-13-2-20-24-37-25 13-39 21-39 34z"/>
<glyph glyph-name="circle-9" unicode="&#90;" d="M256 45c117 0 211 94 211 211 0 117-94 211-211 211-117 0-211-94-211-211 0-117 94-211 211-211z m0-23c-129 0-234 105-234 234 0 129 105 234 234 234 129 0 234-105 234-234 0-129-105-234-234-234z m-47 147c7-3 26-6 38-6 59 0 76 53 76 104 0 42-11 89-63 89-34 0-60-23-60-62 0-33 20-58 56-58 16 0 29 5 41 17l1 0c-1-36-18-68-52-68-12 0-24 3-33 8z m20 126c0 20 10 39 33 39 22 0 33-21 33-39 0-21-13-37-35-37-21 0-31 20-31 37z"/>
<glyph glyph-name="circle-10" unicode="&#48;" d="M256 45c117 0 211 94 211 211 0 117-94 211-211 211-117 0-211-94-211-211 0-117 94-211 211-211z m0-23c-129 0-234 105-234 234 0 129 105 234 234 234 129 0 234-105 234-234 0-129-105-234-234-234z m-80 145l27 0 0 186-24 0-45-37 14-18 28 24z m66 93c0-41 11-97 63-97 52 0 63 56 63 97 0 41-11 96-63 96-52 0-63-55-63-96z m28 0c0 23 4 74 35 74 31 0 35-51 35-74 0-24-3-75-35-75-32 0-35 51-35 75z"/>
<glyph glyph-name="edit" unicode="&#49;" d="M145 191l46-46-16-16-17 0 0 29-29 0 0 17z m126 119c3-2 3-5-1-9l-89-89c-3-3-6-3-9-1-3 3-2 6 1 10l89 88c4 4 7 4 9 1z m-83-210l166 166-88 88-166-166 0-88z m185 185l28 28c6 6 9 13 9 21 0 8-3 15-9 21l-46 46c-6 6-13 9-21 9-8 0-15-3-21-9l-28-28z m118 118l0-294c0-24-9-45-26-62-17-17-38-26-62-26l-294 0c-24 0-45 9-62 26-17 17-26 38-26 62l0 294c0 24 9 45 26 62 17 17 38 26 62 26l294 0c24 0 45-9 62-26 17-17 26-38 26-62z m0 0"/>
<glyph glyph-name="circle-info" unicode="&#50;" d="M329 119l0 46c0 2-1 4-2 6-2 2-4 3-7 3l-27 0 0 146c0 3-1 5-3 7-2 1-4 2-7 2l-91 0c-3 0-5-1-7-2-1-2-2-4-2-7l0-46c0-2 1-5 2-6 2-2 4-3 7-3l27 0 0-91-27 0c-3 0-5-1-7-3-1-2-2-4-2-6l0-46c0-3 1-5 2-7 2-1 4-2 7-2l128 0c3 0 5 1 7 2 1 2 2 4 2 7z m-36 256l0 46c0 2-1 4-3 6-2 2-4 3-7 3l-54 0c-3 0-5-1-7-3-2-2-3-4-3-6l0-46c0-3 1-5 3-7 2-1 4-2 7-2l54 0c3 0 5 1 7 2 2 2 3 4 3 7z m182-119c0-40-9-77-29-110-20-34-46-60-80-80-33-20-70-29-110-29-40 0-77 9-110 29-34 20-60 46-80 80-20 33-29 70-29 110 0 40 9 77 29 110 20 34 46 60 80 80 33 20 70 29 110 29 40 0 77-9 110-29 34-20 60-46 80-80 20-33 29-70 29-110z"/>
<glyph glyph-name="bulp" unicode="&#51;" d="M340 101l-165 0c-14 0-25 11-25 25l0 46c0 13 11 24 25 24l165 0c13 0 24-11 24-24l0-46c0-14-11-25-24-25z m102 230c0 100-83 181-186 181-103 0-186-81-186-181 0-99 83-180 186-180 103 0 186 81 186 180z m-128-331l-114 0c-14 0-25 11-25 25l0 10c0 13 11 24 25 24l114 0c13 0 25-11 25-24l0-10c0-14-12-25-25-25z"/>
<glyph glyph-name="beacon" unicode="&#52;" d="M174 427l-88-27c-3-1-6 0-7 3-1 3 1 6 4 7l88 27c3 0 6-1 6-4 1-3 0-5-3-6z m6-27l150 0c7 0 12 5 12 11 0 7-5 12-12 12l-4 0c-1 8-4 16-7 24 5 2 8 6 8 11 0 7-6 12-12 12l-6 0c-13 23-32 42-54 42-21 0-41-19-54-42l-6 0c-6 0-11-5-11-12 0-5 3-9 7-11-3-8-5-16-7-24l-4 0c-7 0-12-5-12-11 0-7 5-12 12-12z m198-366l-16 0-30 334c-1 8-7 15-15 15l-124 0c-8 0-14-7-15-15l-30-334-28 0c-9 0-17-8-17-17 0-9 8-17 17-17l258 0c9 0 17 8 17 17 0 9-8 17-17 17z m-172 302l16 15 80 0 1-7-105-105z m-15-177l118 118 7-81-134-134z m36-125l95 95 7-81-14-14-88 0z m201 433l-89-27c-2-1-5 0-6 3-1 3 1 6 3 6l89 27c2 1 5 0 6-3 1-3-1-6-3-6z m-257-27l-88 28c-3 1-4 4-4 7 1 3 4 4 7 3l88-28c2-1 4-4 3-7-1-3-4-4-6-3z m256-31l-91 18c-3 0-4 3-4 6 1 2 3 4 6 4l91-18c3 0 4-3 4-6-1-3-3-5-6-4z"/>
<glyph glyph-name="heart" unicode="&#53;" d="M256 20l-36 36c-133 118-220 197-220 295 0 79 61 141 141 141 43 0 87-21 115-54 28 33 72 54 115 54 80 0 141-62 141-141 0-98-87-177-220-295z"/>
<glyph glyph-name="person-alt" unicode="&#54;" d="M256 241c63 0 115 60 115 134 0 103-52 135-115 135-63 0-115-32-115-135 0-74 52-134 115-134z m253-198l-57 131c-3 6-8 10-14 13l-89 47c-2 1-5 1-7 0-25-20-55-30-86-30-31 0-61 10-86 30-2 1-5 1-7 0l-89-47c-6-3-11-8-14-13l-57-131c-5-9-4-19 2-27 5-9 14-14 24-14l454 0c10 0 19 5 24 14 6 8 7 18 2 27z"/>
<glyph glyph-name="locate" unicode="&#55;" d="M256 349c-51 0-93-42-93-93 0-51 42-93 93-93 51 0 93 42 93 93 0 51-42 93-93 93z m209-70c-11 97-89 174-185 184l0 49-46 0 0-47c-98-12-175-89-187-186l-47 0 0-46 47 0c11-97 89-174 185-184l0-49 46 0 0 47c97 11 174 89 184 185l50 0 0 46-47 0z m-209-186c-90 0-163 73-163 163 0 90 73 163 163 163 90 0 163-73 163-163 0-90-73-163-163-163z"/>
<glyph glyph-name="menu-alt" unicode="&#56;" d="M196 21l120 0 0 124-120 0z m-181 0l121 0 0 124-121 0z m0 368l121 0 0 123-121 0z m0-184l121 0 0 123-121 0z m181 0l120 0 0 123-120 0z m180 307l0-123 121 0 0 123z m0-307l121 0 0 123-121 0z m-180 184l120 0 0 123-120 0z m180-368l121 0 0 124-121 0z"/>
<glyph glyph-name="instagram" unicode="&#57;" d="M372 269c0-64-53-115-116-115-64 0-116 51-116 115 0 15 2 29 8 42l-144 0 0-173c0-68 57-125 125-125l252 0c70 0 125 57 125 125l0 173-142 0c6-15 8-28 8-42z m-46 0c0 38-32 70-70 70-38 0-70-30-70-70 0-38 32-70 70-70 38 0 70 30 70 70z m55 243l-244 0 0-131-29 0 0 129c-9-2-19-4-28-7l0-122-27 0 0 106c-30-22-49-58-49-100l0-36 169 0c20 21 49 34 81 34 32 0 61-13 82-34l168 0 0 36c2 68-53 125-123 125z m57-118c0-7-6-13-13-13l-42 0c-8 0-13 6-13 13l0 42c0 8 5 13 13 13l42 0c7 0 13-5 13-13z"/>
<glyph glyph-name="share" unicode="&#33;" d="M384 179c21 0 39-7 54-22 15-14 23-33 23-55 0-21-8-39-23-54-15-15-33-22-54-22-21 0-39 7-54 22-15 15-23 33-23 54 0 2 0 5 1 8 0 2 0 4 0 6 0 0-133 80-133 80-14-11-30-17-47-17-21 0-39 8-54 23-15 15-23 33-23 54 0 21 8 39 23 54 15 15 33 23 54 23 18 0 34-5 47-16 0 0 133 80 133 80 0 2 0 4 0 6-1 3-1 5-1 7 0 21 8 39 23 54 15 15 33 22 54 22 21 0 39-7 54-22 15-14 23-33 23-54 0-22-8-40-23-55-15-15-33-22-54-22-18 0-33 5-46 16 0 0-134-80-134-80 0-2 1-7 1-13 0-5-1-10-1-12 0 0 134-80 134-80 12 10 28 15 46 15"/>
<glyph glyph-name="heart-o" unicode="&#34;" d="M371 492c-45 0-88-21-115-54-29 33-70 54-115 54-80 0-141-62-141-142 0-96 86-176 219-297l37-33 37 35c131 119 219 199 219 295 0 80-61 142-141 142z m-113-400l-2-2-2 2c-121 111-203 184-203 258 0 51 39 90 90 90 39 0 78-24 92-61l48 0c12 35 51 61 90 61 51 0 90-39 90-90 0-74-80-147-203-258z"/>
<glyph glyph-name="circle-play" unicode="&#35;" d="M256 512c-141 0-256-115-256-256 0-141 115-256 256-256 141 0 256 115 256 256 0 141-115 256-256 256z m0-505c-138 0-249 111-249 249 0 138 111 249 249 249 138 0 249-111 249-249 0-138-111-249-249-249z m-51 368l174-119-174-119z"/>
<glyph glyph-name="info" unicode="&#36;" d="M347 128l0-37c0-5-1-9-5-12-4-4-8-6-13-6l-146 0c-5 0-9 2-13 6-4 3-5 7-5 12l0 37c0 5 1 9 5 13 4 3 8 5 13 5l18 0 0 110-18 0c-5 0-9 2-13 5-4 4-5 8-5 13l0 37c0 5 1 9 5 13 4 3 8 5 13 5l110 0c5 0 9-2 12-5 4-4 6-8 6-13l0-165 18 0c5 0 9-2 13-5 4-4 5-8 5-13z m-36 329l0-55c0-5-2-9-6-13-3-3-7-5-12-5l-74 0c-5 0-9 2-12 5-4 4-6 8-6 13l0 55c0 5 2 9 6 13 3 4 7 5 12 5l74 0c5 0 9-1 12-5 4-4 6-8 6-13z"/>
<glyph glyph-name="browser" unicode="&#37;" d="M461 70l-410 0c-28 0-51 22-51 50l0 272c0 28 23 50 51 50l410 0c28 0 51-22 51-50l0-272c0-28-23-50-51-50z m-410 347c-14 0-26-11-26-25l0-272c0-14 12-25 26-25l410 0c14 0 26 11 26 25l0 272c0 14-12 25-26 25z m56-53c0 12-9 22-20 22-11 0-20-10-20-22 0-12 9-21 20-21 11 0 20 9 20 21z m66 0c0 12-9 22-20 22-11 0-20-10-20-22 0-12 9-21 20-21 11 0 20 9 20 21z m66 0c0 12-9 22-20 22-11 0-21-10-21-22 0-12 10-21 21-21 11 0 20 9 20 21z m260-73l-486 0c-8 0-13 5-13 12 0 8 5 13 13 13l486 0c8 0 13-5 13-13 0-7-5-12-13-12z"/>
<glyph glyph-name="camera" unicode="&#38;" d="M512 88l-98 98 0-54c0-22-18-38-38-38l-337 0c-21 0-38 18-38 38l0 248c0 22 18 38 38 38l337 0c21 0 38-18 38-38l0-54 98 98z m-474 303c-6 0-11-6-11-11l0-247c0-6 5-10 11-10l337 0c6 0 10 5 10 10l0 119 99-98 0 206-99-99 0 119c0 7-5 11-10 11z"/>
<glyph glyph-name="person-id" unicode="&#39;" d="M76 215c0 25 50 39 76 39 25 0 76-14 76-39l0-13-152 0z m114 101c0-21-17-38-38-38-22 0-38 17-38 38 0 22 16 38 38 38 21 0 38-16 38-38z m227-88l-126 0c-8 0-13 5-13 12 0 8 5 13 13 13l126 0c8 0 13-5 13-13 0-7-5-12-13-12z m0 50l-126 0c-8 0-13 5-13 13 0 7 5 12 13 12l126 0c8 0 13-5 13-12 0-8-5-13-13-13z m-52-101l-74 0c-8 0-13 5-13 13 0 7 5 12 13 12l74 0c8 0 13-5 13-12 0-8-6-13-13-13z m96-107l-410 0c-28 0-51 22-51 50l0 272c0 28 23 50 51 50l410 0c28 0 51-22 51-50l0-272c0-28-23-50-51-50z m-410 347c-14 0-26-11-26-25l0-272c0-14 12-25 26-25l410 0c14 0 26 11 26 25l0 272c0 14-12 25-26 25z"/>
<glyph glyph-name="chat" unicode="&#40;" d="M3 14l0 427c0 33 25 57 57 57l405 0c29 0 44-19 44-57l0-263c0-33-25-57-57-57l-342 0z m57 457c-17 0-30-13-30-30l0-361 69 68 353 0c17 0 30 12 30 30l0 263c0 30-10 30-17 30z m312-184l-43 0 0 44 43 0z m-87 0l-44 0 0 44 44 0z m-88 0l-44 0 0 44 44 0z"/>
<glyph glyph-name="print" unicode="&#41;" d="M176 489c-27 0-49-22-49-49l0-29 258 0 0 29 0 0c0 27-22 49-49 49z m-122-97c-30 0-54-24-54-54l0-172c0-30 24-54 54-54l26 0 0 90c0 16 12 28 28 28l296 0c16 0 28-12 28-28l0-90 26 0c30 0 54 24 54 54l0 172c0 30-24 54-54 54l-404 0z m316-53l30 0c7 0 13-6 13-13l0-30c0-7-6-12-13-12l-30 0c-7 0-12 5-12 12l0 30c0 7 5 13 12 13z m-262-128c-5 0-10-4-10-9l0-180c0-5 5-9 10-9l296 0c5 0 10 4 10 9l0 180c0 5-5 9-10 9z m9-18l278 0 0-161-278 0z m37-32c-5 0-10-4-10-9 0-5 5-10 10-10l203 0c5 0 9 5 9 10 0 5-4 9-9 9z m0-40c-5 0-10-4-10-10 0-5 5-9 10-9l203 0c5 0 9 4 9 9 0 6-4 10-9 10z m0-41c-5 0-10-4-10-9 0-5 5-10 10-10l203 0c5 0 9 4 9 10 0 5-4 9-9 9z"/>
</font>
</defs>
</svg>
